<svg xmlns="http://www.w3.org/2000/svg" style="display: none;"><symbol id="slack" viewBox="0 0 512.005 512.005"><title>slack</title><path style="fill:#FFC107;" d="M332.034,31.529c-7.776-23.936-33.504-37.056-57.472-29.28s-37.056,33.504-29.28,57.472 l117.92,362.848c8.096,22.368,32.256,34.944,55.488,28.288c24.192-6.976,38.976-32.672,31.232-56.448 C449.634,393.481,332.034,31.529,332.034,31.529z"/><path style="fill:#4CAF50;" d="M149.314,90.921c-7.808-23.968-33.536-37.088-57.472-29.28s-37.088,33.504-29.28,57.472 l117.92,362.816c8.096,22.368,32.256,34.944,55.488,28.288c24.192-6.976,38.976-32.672,31.232-56.448 C266.914,452.873,149.314,90.921,149.314,90.921z"/><path style="fill:#EC407A;" d="M480.482,332.041c23.968-7.776,37.056-33.504,29.28-57.472s-33.504-37.056-57.472-29.28 L89.442,363.241c-22.368,8.096-34.944,32.256-28.288,55.488c6.976,24.192,32.672,38.976,56.448,31.232 C118.53,449.641,480.482,332.041,480.482,332.041z"/><path style="fill:#472A49;" d="M165.058,434.537c23.616-7.68,54.048-17.568,86.72-28.192c-7.68-23.616-17.568-54.048-28.192-86.72 l-86.72,28.192L165.058,434.537z"/><path style="fill:#CC2027;" d="M347.81,375.145c32.8-10.656,63.264-20.544,86.72-28.192c-7.68-23.616-17.568-54.08-28.192-86.752 l-86.72,28.192L347.81,375.145z"/><path style="fill:#2196F3;" d="M421.09,149.321c23.968-7.776,37.056-33.504,29.28-57.472s-33.504-37.056-57.472-29.28 L30.082,180.489c-22.4,8.096-34.976,32.256-28.288,55.488c6.976,24.192,32.672,38.944,56.448,31.232 C59.138,266.921,421.09,149.321,421.09,149.321z"/><path style="fill:#1A937D;" d="M105.666,251.785c23.616-7.68,54.08-17.568,86.752-28.192c-10.656-32.768-20.544-63.232-28.192-86.72 l-86.72,28.192L105.666,251.785z"/><path style="fill:#65863A;" d="M288.418,192.425c32.8-10.656,63.264-20.544,86.752-28.192c-10.656-32.8-20.576-63.264-28.192-86.752 l-86.752,28.192L288.418,192.425z"/></symbol><symbol id="twitter" viewBox="0 0 512 512"><title>twitter</title><path style="fill:#03A9F4;" d="M512,97.248c-19.04,8.352-39.328,13.888-60.48,16.576c21.76-12.992,38.368-33.408,46.176-58.016 c-20.288,12.096-42.688,20.64-66.56,25.408C411.872,60.704,384.416,48,354.464,48c-58.112,0-104.896,47.168-104.896,104.992 c0,8.32,0.704,16.32,2.432,23.936c-87.264-4.256-164.48-46.08-216.352-109.792c-9.056,15.712-14.368,33.696-14.368,53.056 c0,36.352,18.72,68.576,46.624,87.232c-16.864-0.32-33.408-5.216-47.424-12.928c0,0.32,0,0.736,0,1.152 c0,51.008,36.384,93.376,84.096,103.136c-8.544,2.336-17.856,3.456-27.52,3.456c-6.72,0-13.504-0.384-19.872-1.792 c13.6,41.568,52.192,72.128,98.08,73.12c-35.712,27.936-81.056,44.768-130.144,44.768c-8.608,0-16.864-0.384-25.12-1.44 C46.496,446.88,101.6,464,161.024,464c193.152,0,298.752-160,298.752-298.688c0-4.64-0.16-9.12-0.384-13.568 C480.224,136.96,497.728,118.496,512,97.248z"/></symbol><symbol id="facebook" viewBox="0 0 512 512"><title>facebook</title><path d="M288,176v-64c0-17.664,14.336-32,32-32h32V0h-64c-53.024,0-96,42.976-96,96v80h-64v80h64v256h96V256h64l32-80H288z" fill="#0E56D7"/></symbol><symbol id="netflix" viewBox="0 0 512 512"><title>netflix</title><path style="fill:#D5011D;" d="M83.501,0L83.5,512l17.432-1.524c29.175-4.794,58.986-8.263,88.604-10.312l13.965-0.966V60L83.501,0z "/><polygon style="fill:#AA011A;" points="308.5,1.325 308.5,453.341 428.5,512 428.5,1.325 "/><path style="fill:#D5011D;" d="M256,130.113h-30l30,252.72l52.646,116.433l8.852,0.566c31.284,2.001,62.766,5.582,93.57,10.644 L428.5,512L256,130.113z"/><polygon style="fill:#FF0021;" points="198.03,1.325 83.501,1.325 256,382.833 256,130.113 "/></symbol><symbol id="search" viewBox="0 0 512 512"><title>search</title><path style="fill:#FBBB00;" d="M113.47,309.408L95.648,375.94l-65.139,1.378C11.042,341.211,0,299.9,0,256 c0-42.451,10.324-82.483,28.624-117.732h0.014l57.992,10.632l25.404,57.644c-5.317,15.501-8.215,32.141-8.215,49.456 C103.821,274.792,107.225,292.797,113.47,309.408z"/><path style="fill:#518EF8;" d="M507.527,208.176C510.467,223.662,512,239.655,512,256c0,18.328-1.927,36.206-5.598,53.451 c-12.462,58.683-45.025,109.925-90.134,146.187l-0.014-0.014l-73.044-3.727l-10.338-64.535 c29.932-17.554,53.324-45.025,65.646-77.911h-136.89V208.176h138.887L507.527,208.176L507.527,208.176z"/><path style="fill:#28B446;" d="M416.253,455.624l0.014,0.014C372.396,490.901,316.666,512,256,512 c-97.491,0-182.252-54.491-225.491-134.681l82.961-67.91c21.619,57.698,77.278,98.771,142.53,98.771 c28.047,0,54.323-7.582,76.87-20.818L416.253,455.624z"/><path style="fill:#F14336;" d="M419.404,58.936l-82.933,67.896c-23.335-14.586-50.919-23.012-80.471-23.012 c-66.729,0-123.429,42.957-143.965,102.724l-83.397-68.276h-0.014C71.23,56.123,157.06,0,256,0 C318.115,0,375.068,22.126,419.404,58.936z"/></symbol><symbol id="github" viewBox="0 0 512 512"><title>github</title><path d="m512 257c0 120-84.101562 220.5-196 247.5l-30.601562-97.199219h-58.796876l-29.601562 97.199219c-111.898438-27-197-127.5-197-247.5 0-140.699219 115.300781-257 256-257s256 116.300781 256 257zm0 0" fill="#384949"/><path d="m512 257c0 120-84.101562 220.5-196 247.5l-30.601562-97.199219h-29.398438v-407.300781c140.699219 0 256 116.300781 256 257zm0 0" fill="#293939"/><path d="m181.277344 430.058594c-6.078125 0-12.011719-.867188-17.828125-2.578125-15.128907-4.46875-27.421875-14.546875-36.546875-29.914063-4.160156-7.015625-8.496094-11.878906-13.605469-15.308594-5.027344-3.382812-9.039063-4.671874-13.273437-4.363281l-2.636719-29.882812c11.117187-.953125 21.753906 2.0625 32.59375 9.316406 8.832031 5.902344 16.257812 14.0625 22.71875 24.914063 5.304687 8.921874 11.410156 14.152343 19.25 16.46875 8.804687 2.589843 17.941406 1.507812 29.632812-3.472657l11.808594 27.566407c-11.296875 4.835937-21.929687 7.253906-32.113281 7.253906zm0 0" fill="#ececf1"/><path d="m400.902344 287.300781c-10.503906 27.898438-36.902344 63.300781-103.800782 73.199219 8.699219 12.898438 19.199219 19.800781 18.898438 46.800781v97.199219c-19.199219 4.800781-39.300781 7.5-60 7.5s-39.800781-2.699219-59-7.5v-98.402344c0-26.699218 10.101562-34.199218 17.898438-45.597656-66.898438-9.902344-93.296876-45.300781-103.800782-73.199219-14.097656-37.203125-6.597656-83.402343 18.003906-112.800781.597657-.601562 1.5-2.101562 1.199219-3-11.402343-34.199219 2.398438-62.699219 3-65.699219 12.898438 3.898438 15-3.902343 56.699219 21.597657l7.199219 4.203124c3 1.796876 2.101562.597657 5.101562.597657 17.398438-4.800781 35.699219-7.5 53.699219-7.5 18.300781 0 36.300781 2.699219 54.597656 7.5l2.101563.300781s.597656 0 2.101562-.898438c51.898438-31.503906 50.097657-21.300781 64.195313-25.800781.300781 3 14.101562 31.796875 2.703125 65.699219-1.5 4.5 45 47.097656 19.203125 115.800781zm0 0" fill="#ececf1"/><path d="m400.902344 287.300781c-10.503906 27.898438-36.902344 63.300781-103.800782 73.199219 8.699219 12.898438 19.199219 19.800781 18.898438 46.800781v97.199219c-19.199219 4.800781-39.300781 7.5-60 7.5v-387.300781c18.300781 0 36.300781 2.699219 54.601562 7.5l2.097657.300781s.601562 0 2.101562-.898438c51.898438-31.503906 50.097657-21.300781 64.199219-25.800781.300781 3 14.101562 31.796875 2.699219 65.699219-1.5 4.5 45 47.097656 19.203125 115.800781zm0 0" fill="#e2e2e7"/></symbol><symbol id="facebook-1" viewBox="-110 1 511 511.99996"><title>facebook-1</title><path d="m180 512h-81.992188c-13.695312 0-24.835937-11.140625-24.835937-24.835938v-184.9375h-47.835937c-13.695313 0-24.835938-11.144531-24.835938-24.835937v-79.246094c0-13.695312 11.140625-24.835937 24.835938-24.835937h47.835937v-39.683594c0-39.347656 12.355469-72.824219 35.726563-96.804688 23.476562-24.089843 56.285156-36.820312 94.878906-36.820312l62.53125.101562c13.671875.023438 24.792968 11.164063 24.792968 24.835938v73.578125c0 13.695313-11.136718 24.835937-24.828124 24.835937l-42.101563.015626c-12.839844 0-16.109375 2.574218-16.808594 3.363281-1.152343 1.308593-2.523437 5.007812-2.523437 15.222656v31.351563h58.269531c4.386719 0 8.636719 1.082031 12.289063 3.121093 7.878906 4.402344 12.777343 12.726563 12.777343 21.722657l-.03125 79.246093c0 13.6875-11.140625 24.828125-24.835937 24.828125h-58.46875v184.941406c0 13.695313-11.144532 24.835938-24.839844 24.835938zm-76.8125-30.015625h71.632812v-193.195313c0-9.144531 7.441407-16.582031 16.582032-16.582031h66.726562l.027344-68.882812h-66.757812c-9.140626 0-16.578126-7.4375-16.578126-16.582031v-44.789063c0-11.726563 1.191407-25.0625 10.042969-35.085937 10.695313-12.117188 27.550781-13.515626 39.300781-13.515626l36.921876-.015624v-63.226563l-57.332032-.09375c-62.023437 0-100.566406 39.703125-100.566406 103.609375v53.117188c0 9.140624-7.4375 16.582031-16.578125 16.582031h-56.09375v68.882812h56.09375c9.140625 0 16.578125 7.4375 16.578125 16.582031zm163.0625-451.867187h.003906zm0 0"/></symbol><symbol id="twitter-1" viewBox="0 -47 512.00004 512"><title>twitter-1</title><path d="m512 55.964844c-32.207031 1.484375-31.503906 1.363281-35.144531 1.667968l19.074219-54.472656s-59.539063 21.902344-74.632813 25.820313c-39.640625-35.628907-98.5625-37.203125-140.6875-11.3125-34.496094 21.207031-53.011719 57.625-46.835937 100.191406-67.136719-9.316406-123.703126-41.140625-168.363282-94.789063l-14.125-16.964843-10.554687 19.382812c-13.339844 24.492188-17.769531 52.496094-12.476563 78.851563 2.171875 10.8125 5.863282 21.125 10.976563 30.78125l-12.117188-4.695313-1.4375 20.246094c-1.457031 20.566406 5.390625 44.574219 18.320313 64.214844 3.640625 5.53125 8.328125 11.605469 14.269531 17.597656l-6.261719-.960937 7.640625 23.199218c10.042969 30.480469 30.902344 54.0625 57.972657 67.171875-27.035157 11.472657-48.875 18.792969-84.773438 30.601563l-32.84375 10.796875 30.335938 16.585937c11.566406 6.324219 52.4375 27.445313 92.820312 33.78125 89.765625 14.078125 190.832031 2.613282 258.871094-58.664062 57.308594-51.613282 76.113281-125.03125 72.207031-201.433594-.589844-11.566406 2.578125-22.605469 8.921875-31.078125 12.707031-16.964844 48.765625-66.40625 48.84375-66.519531zm-72.832031 48.550781c-10.535157 14.066406-15.8125 32.03125-14.867188 50.578125 3.941407 77.066406-17.027343 136.832031-62.328125 177.628906-52.917968 47.660156-138.273437 66.367188-234.171875 51.324219-17.367187-2.722656-35.316406-8.820313-50.171875-14.910156 30.097656-10.355469 53.339844-19.585938 90.875-37.351563l52.398438-24.800781-57.851563-3.703125c-27.710937-1.773438-50.785156-15.203125-64.96875-37.007812 7.53125-.4375 14.792969-1.65625 22.023438-3.671876l55.175781-15.367187-55.636719-13.625c-27.035156-6.621094-42.445312-22.796875-50.613281-35.203125-5.363281-8.152344-8.867188-16.503906-10.96875-24.203125 5.578125 1.496094 12.082031 2.5625 22.570312 3.601563l51.496094 5.09375-40.800781-31.828126c-29.398437-22.929687-41.179687-57.378906-32.542969-90.496093 91.75 95.164062 199.476563 88.011719 210.320313 90.527343-2.386719-23.183593-2.449219-23.238281-3.074219-25.445312-13.886719-49.089844 16.546875-74.015625 30.273438-82.453125 28.671874-17.621094 74.183593-20.277344 105.707031 8.753906 6.808593 6.265625 16.015625 8.730469 24.632812 6.589844 7.734375-1.921875 14.082031-3.957031 20.296875-6.171875l-12.9375 36.945312 16.515625.011719c-3.117187 4.179688-6.855469 9.183594-11.351562 15.183594zm0 0"/></symbol><symbol id="tesla" viewBox="0 0 512 512"><title>tesla</title><g> <path style="fill:#E82934;" d="M508,512H4c-2.209,0-4-1.791-4-4V4c0-2.209,1.791-4,4-4h504c2.209,0,4,1.791,4,4v504 C512,510.209,510.209,512,508,512z"/> <path style="fill:#C7232C;" d="M508,512h-26.905V0H508c2.209,0,4,1.791,4,4v504C512,510.209,510.209,512,508,512z"/> </g><g> <path style="fill:#FFFFFF;" d="M429.188,133.839c-5.621,5.685-18.838,17.319-41.259,27.524c-1.884,0.858-4.059-0.426-4.215-2.491 c-0.586-7.769-8.984-22.815-64.718-24.097c-1.474-0.034-2.76,1-3.03,2.45l-57.018,305.898c-0.609,3.267-5.289,3.267-5.898,0 l-57.02-305.898c-0.27-1.45-1.556-2.484-3.03-2.45c-55.734,1.282-64.132,16.328-64.718,24.097 c-0.156,2.065-2.331,3.348-4.215,2.491c-22.421-10.206-35.638-21.839-41.259-27.524c-1.577-1.595-0.894-4.277,1.241-4.964 c72.276-23.249,139.311-19.278,149.476-18.504c0.844,0.064,1.616,0.48,2.136,1.148l17.97,23.079c1.201,1.543,3.533,1.543,4.734,0 l17.97-23.079c0.52-0.668,1.292-1.084,2.136-1.148c10.164-0.775,77.2-4.745,149.475,18.504 C430.082,129.562,430.765,132.244,429.188,133.839z"/> <path style="fill:#FFFFFF;" d="M452.913,83.483l-10.135,22.133c-0.442,0.965-1.558,1.416-2.547,1.03 c-10.949-4.271-73.137-26.442-184.226-26.442c-111.09,0-173.287,22.172-184.236,26.442c-0.989,0.386-2.105-0.065-2.547-1.03 L59.087,83.483c-0.479-1.045,0.012-2.284,1.084-2.699c95.477-36.973,296.181-36.973,391.658,0 C452.901,81.2,453.391,82.438,452.913,83.483z"/> </g></symbol></svg>